<svg width="30" height="30" viewBox="0 0 30 30" fill="none" xmlns="http://www.w3.org/2000/svg">
<path fill-rule="evenodd" clip-rule="evenodd" d="M21.25 9.06255L15 18.4376L8.75 9.06255C8.66792 8.93944 8.5624 8.83369 8.43946 8.75136C8.31651 8.66903 8.17856 8.61171 8.03347 8.5827C7.88838 8.55368 7.73899 8.55352 7.59384 8.58224C7.44868 8.61095 7.31061 8.66798 7.1875 8.75005C7.06438 8.83213 6.95864 8.93765 6.8763 9.06059C6.79397 9.18353 6.73666 9.32149 6.70764 9.46658C6.67862 9.61167 6.67847 9.76106 6.70718 9.90621C6.7359 10.0514 6.79292 10.1894 6.875 10.3126L13.96 20.9401C14.0742 21.1112 14.2288 21.2516 14.4102 21.3487C14.5916 21.4458 14.7942 21.4966 15 21.4966C15.2058 21.4966 15.4083 21.4458 15.5898 21.3487C15.7712 21.2516 15.9258 21.1112 16.04 20.9401L23.125 10.3126C23.2071 10.1894 23.2641 10.0514 23.2928 9.90621C23.3215 9.76106 23.3214 9.61167 23.2924 9.46658C23.2633 9.32149 23.206 9.18353 23.1237 9.06059C23.0414 8.93765 22.9356 8.83213 22.8125 8.75005C22.6894 8.66798 22.5513 8.61095 22.4062 8.58224C22.261 8.55352 22.1116 8.55368 21.9665 8.5827C21.8214 8.61171 21.6835 8.66903 21.5605 8.75136C21.4376 8.83369 21.3321 8.93944 21.25 9.06255Z" fill="white"/>
</svg>
