<svg width="24" height="24" viewBox="0 0 24 24" fill="none" xmlns="http://www.w3.org/2000/svg">
<g clip-path="url(#clip0_302_3253)">
<path d="M10.5428 23.9101C8.40226 23.6326 6.19876 22.7146 4.59376 21.4298C0.980262 18.5468 -0.659989 13.9921 0.277511 9.46884C0.679511 7.51584 1.72651 5.46084 3.06676 3.98034C4.05406 2.86921 5.24468 1.95709 6.57451 1.29309C8.34001 0.398338 10.0275 -0.00366211 12.0195 -0.00366211C13.449 -0.00366211 14.598 0.183838 15.9143 0.633088C17.6435 1.22622 19.2144 2.20631 20.5074 3.49864C21.8004 4.79097 22.7813 6.36144 23.3753 8.09034C24.0788 10.1528 24.207 12.3481 23.7578 14.5238C23.3985 16.2428 22.4723 18.1763 21.3323 19.5743C20.8635 20.1526 19.785 21.1838 19.2188 21.6016C17.5247 22.8597 15.5324 23.6553 13.4378 23.9101C12.8205 23.9881 11.1405 23.9843 10.5435 23.9101H10.5428ZM13.8128 22.9066C16.7365 22.4166 19.3458 20.7852 21.0668 18.3713C23.094 15.5236 23.637 11.7031 22.4925 8.37159C22.2233 7.59009 21.555 6.28584 21.0668 5.59809C20.5238 4.82859 19.1798 3.48084 18.4065 2.93784C17.6565 2.40684 16.3793 1.76184 15.5078 1.47684C13.9346 0.954193 12.2642 0.791693 10.6198 1.00134C8.97543 1.211 7.39918 1.78744 6.00751 2.68809C4.69814 3.5482 3.57888 4.66747 2.71876 5.97684C1.81834 7.36776 1.24201 8.94324 1.03236 10.5869C0.822703 12.2305 0.985088 13.9002 1.50751 15.4726C1.79626 16.3433 2.44126 17.6251 2.96851 18.3751C3.51526 19.1446 4.85926 20.4923 5.62876 21.0353C6.32026 21.5198 7.62076 22.1873 8.40226 22.4611C10.1417 23.0521 12.0001 23.2051 13.8128 22.9066ZM9.65626 18.8828C9.09552 18.7983 8.55757 18.6016 8.07451 18.3046C7.64101 18.0271 4.36726 14.8201 4.20751 14.5193C4.02376 14.1758 4.34401 13.5503 4.80151 13.3591L5.01601 13.2691L4.35601 12.5971C3.99301 12.2258 3.64876 11.8313 3.59401 11.7218C3.46501 11.4721 3.46126 10.9366 3.58201 10.6981C3.63301 10.6006 3.75376 10.4521 3.84751 10.3696C4.00801 10.2368 4.02301 10.1896 4.00801 9.85359C3.98851 9.55659 4.01551 9.43959 4.14451 9.21684C4.33201 8.89659 4.71901 8.68134 5.09776 8.67759C5.30851 8.67759 5.36326 8.65059 5.45326 8.49384C5.68801 8.08359 6.35926 7.93509 6.87151 8.18559L7.14901 8.31834L7.28551 8.18559C7.47301 8.01384 7.84801 7.86159 8.09401 7.86159C8.58601 7.86159 9.28126 8.42784 9.28126 8.82609C9.28126 9.30234 8.84776 9.38484 8.41801 8.99034C8.13301 8.72484 7.98826 8.69709 7.87126 8.88459C7.81276 8.97459 7.95301 9.14259 8.79301 9.99009C9.63301 10.8338 9.78526 11.0138 9.78526 11.1736C9.77862 11.296 9.72649 11.4116 9.63909 11.4976C9.55168 11.5836 9.4353 11.6339 9.31276 11.6386C9.16051 11.6386 8.91076 11.4196 7.75801 10.2713C6.58201 9.09909 6.36751 8.91159 6.27376 8.97084C6.01951 9.13134 6.10576 9.24834 7.48051 10.6268C8.22676 11.3768 8.84026 12.0406 8.84026 12.1036C8.84026 12.2326 8.72326 12.4711 8.62576 12.5333C8.54578 12.5685 8.45877 12.5846 8.37151 12.5806C8.21101 12.5843 7.96501 12.3616 6.65701 11.0573C5.34451 9.75234 5.10976 9.54159 5.01601 9.60009C4.75801 9.76434 4.84426 9.87759 6.34051 11.3813C7.15726 12.1981 7.84051 12.9286 7.86001 13.0066C7.90276 13.1476 7.80901 13.3936 7.68451 13.4791C7.6019 13.5142 7.51245 13.5304 7.42276 13.5263C7.26226 13.5263 7.05976 13.3508 5.97751 12.2686C4.93426 11.2253 4.69201 11.0108 4.55926 11.0228C4.18426 11.0656 4.31701 11.2336 6.25426 13.1753C7.93426 14.8591 8.14876 15.0976 8.14876 15.2731C8.15045 15.3375 8.13596 15.4014 8.10662 15.4587C8.07727 15.5161 8.03399 15.5652 7.98076 15.6016C7.68001 15.8401 7.56301 15.7853 6.80476 15.0511C6.41776 14.6798 6.01951 14.3206 5.91376 14.2538C5.72251 14.1368 5.23801 14.0858 5.14801 14.1796C5.11651 14.2066 5.83126 14.9611 6.73426 15.8551C8.23801 17.3431 8.40976 17.4961 8.85151 17.7068C9.25846 17.9095 9.70665 18.0156 10.1613 18.0169C10.6159 18.0182 11.0647 17.9146 11.4728 17.7143C12.7343 17.1128 13.434 15.6518 13.0898 14.3273C12.918 13.6673 12.7028 13.3508 11.8358 12.4561C10.836 11.4323 10.605 11.1511 10.359 10.6591C10.0853 10.1086 9.96826 9.57309 9.96826 8.90484C9.96826 8.18184 10.0425 7.85409 10.3628 7.17834C10.6673 6.53409 11.304 5.85834 11.9333 5.51034C13.1678 4.82259 14.793 4.88109 15.972 5.65134C16.2068 5.80359 17.0543 6.60084 18.1088 7.65909C19.6755 9.22959 19.8548 9.43284 19.8548 9.61209C19.8548 10.0381 19.5068 10.5106 19.1205 10.6081C18.9758 10.6471 19.0035 10.6861 19.6598 11.3543C20.0423 11.7413 20.3978 12.1591 20.4525 12.2881C20.6363 12.7298 20.5538 13.1588 20.2178 13.5106C20.046 13.6906 20.0228 13.7528 20.0183 14.1121C20.0145 14.4286 19.9793 14.5613 19.854 14.7413C19.7551 14.8878 19.6226 15.0085 19.4677 15.0934C19.3127 15.1783 19.1397 15.225 18.963 15.2296C18.7208 15.2296 18.6743 15.2528 18.5528 15.4366C18.279 15.8588 17.568 16.0066 17.1075 15.7336L16.8773 15.5971L16.713 15.7576C16.35 16.1056 15.7635 16.1521 15.3188 15.8671C14.9595 15.6406 14.694 15.3241 14.694 15.1246C14.694 14.9491 14.9483 14.6596 15.1043 14.6596C15.2528 14.6596 15.4523 14.7766 15.6788 14.9881C15.9053 15.2026 16.101 15.2026 16.1318 14.9843C16.1475 14.8673 15.96 14.6446 15.2018 13.8826C14.4045 13.0778 14.2523 12.8941 14.2523 12.7381C14.2505 12.651 14.2666 12.5645 14.2995 12.4838C14.3858 12.3548 14.628 12.2648 14.7758 12.3038C14.8538 12.3233 15.5138 12.9331 16.2368 13.6553C16.9635 14.3821 17.6003 14.9753 17.6588 14.9753C17.8193 14.9753 17.9243 14.8148 17.85 14.6783C17.8148 14.6161 17.2013 13.9868 16.4903 13.2758C15.3773 12.1666 15.1973 11.9596 15.1973 11.7953C15.1936 11.7069 15.2098 11.6188 15.2445 11.5373C15.3113 11.4398 15.5453 11.3228 15.678 11.3228C15.7365 11.3228 16.4708 12.0061 17.3108 12.8423C18.8498 14.3738 18.963 14.4593 19.1235 14.2058C19.182 14.1121 18.9713 13.8736 17.6663 12.5648C16.3185 11.2133 16.1393 11.0101 16.1393 10.8346C16.1393 10.7138 16.194 10.5886 16.2803 10.5106C16.5653 10.2413 16.6515 10.2961 18.0383 11.6746C19.3508 12.9833 19.4678 13.0688 19.6283 12.8191C19.6868 12.7253 19.4213 12.4366 17.7923 10.8031C16.0185 9.02184 15.8903 8.87709 15.8903 8.67009C15.8903 8.35734 16.0703 8.20884 16.4175 8.23284C16.4798 8.23659 16.8548 8.55309 17.2418 8.93184C17.6325 9.31059 18.054 9.66609 18.1793 9.72084C18.4253 9.82209 18.7103 9.83784 18.8318 9.75984C18.9488 9.68559 15.7065 6.49434 15.285 6.27159C14.9236 6.07653 14.5261 5.9575 14.117 5.92181C13.7079 5.88613 13.2958 5.93456 12.906 6.06411C12.5163 6.19366 12.1573 6.4016 11.8509 6.67513C11.5446 6.94865 11.2975 7.28198 11.1248 7.65459C10.9215 8.08809 10.8945 8.21709 10.8668 8.77584C10.8435 9.30309 10.863 9.46734 10.9763 9.80334C11.1795 10.4011 11.355 10.6471 12.2655 11.5771C13.2503 12.5851 13.4378 12.8153 13.6875 13.3546C14.391 14.8546 14.094 16.5893 12.9338 17.7451C12.051 18.6316 10.848 19.0456 9.65626 18.8821V18.8828Z" fill="white"/>
</g>
<defs>
<clipPath id="clip0_302_3253">
<rect width="24" height="24" fill="white"/>
</clipPath>
</defs>
</svg>
