<svg width="30" height="30" viewBox="0 0 30 30" fill="none" xmlns="http://www.w3.org/2000/svg">
<path fill-rule="evenodd" clip-rule="evenodd" d="M9.06249 21.25L18.4375 15L9.06249 8.75003C8.93938 8.66795 8.83363 8.56243 8.7513 8.43949C8.66897 8.31654 8.61165 8.17859 8.58263 8.0335C8.55362 7.88841 8.55346 7.73902 8.58218 7.59387C8.61089 7.44872 8.66791 7.31064 8.74999 7.18753C8.83207 7.06441 8.93759 6.95867 9.06053 6.87634C9.18347 6.794 9.32143 6.73669 9.46652 6.70767C9.61161 6.67865 9.761 6.6785 9.90615 6.70721C10.0513 6.73593 10.1894 6.79295 10.3125 6.87503L20.94 13.96C21.1112 14.0742 21.2516 14.2288 21.3486 14.4103C21.4457 14.5917 21.4965 14.7943 21.4965 15C21.4965 15.2058 21.4457 15.4084 21.3486 15.5898C21.2516 15.7712 21.1112 15.9259 20.94 16.04L10.3125 23.125C10.1894 23.2071 10.0513 23.2641 9.90615 23.2928C9.761 23.3216 9.61161 23.3214 9.46652 23.2924C9.32143 23.2634 9.18347 23.2061 9.06053 23.1237C8.93759 23.0414 8.83207 22.9356 8.74999 22.8125C8.66791 22.6894 8.61089 22.5513 8.58218 22.4062C8.55346 22.261 8.55362 22.1116 8.58263 21.9666C8.61165 21.8215 8.66897 21.6835 8.7513 21.5606C8.83363 21.4376 8.93938 21.3321 9.06249 21.25Z" fill="#09B451"/>
</svg>
